<?xml version="1.0" encoding="UTF-8" standalone="no"?>
<svg width="512" height="512" viewBox="0 0 512 512" fill="none" xmlns="http://www.w3.org/2000/svg">
  <defs>
    <!-- Main gradients -->
    <linearGradient id="bgGradient" x1="0%" y1="0%" x2="100%" y2="100%">
      <stop offset="0%" stop-color="#0f172a" />
      <stop offset="100%" stop-color="#1e293b" />
    </linearGradient>
    
    <linearGradient id="primaryGradient" x1="0%" y1="0%" x2="100%" y2="100%">
      <stop offset="0%" stop-color="#6366f1" />
      <stop offset="100%" stop-color="#8b5cf6" />
    </linearGradient>
    
    <linearGradient id="accentGradient" x1="0%" y1="0%" x2="100%" y2="100%">
      <stop offset="0%" stop-color="#8b5cf6" />
      <stop offset="100%" stop-color="#ec4899" />
    </linearGradient>
    
    <!-- Filters -->
    <filter id="glow" x="-10%" y="-10%" width="120%" height="120%">
      <feGaussianBlur stdDeviation="6" result="blur" />
      <feComposite in="SourceGraphic" in2="blur" operator="over" />
    </filter>
  </defs>
  
  <!-- Background -->
  <rect width="512" height="512" rx="128" fill="url(#bgGradient)" />
  
  <!-- Background dots pattern -->
  <g opacity="0.2">
    <circle cx="64" cy="64" r="2" fill="white" />
    <circle cx="128" cy="64" r="2" fill="white" />
    <circle cx="192" cy="64" r="2" fill="white" />
    <circle cx="256" cy="64" r="2" fill="white" />
    <circle cx="320" cy="64" r="2" fill="white" />
    <circle cx="384" cy="64" r="2" fill="white" />
    <circle cx="448" cy="64" r="2" fill="white" />
    
    <circle cx="64" cy="128" r="2" fill="white" />
    <circle cx="128" cy="128" r="2" fill="white" />
    <circle cx="192" cy="128" r="2" fill="white" />
    <circle cx="256" cy="128" r="2" fill="white" />
    <circle cx="320" cy="128" r="2" fill="white" />
    <circle cx="384" cy="128" r="2" fill="white" />
    <circle cx="448" cy="128" r="2" fill="white" />
    
    <circle cx="64" cy="192" r="2" fill="white" />
    <circle cx="128" cy="192" r="2" fill="white" />
    <circle cx="192" cy="192" r="2" fill="white" />
    <circle cx="256" cy="192" r="2" fill="white" />
    <circle cx="320" cy="192" r="2" fill="white" />
    <circle cx="384" cy="192" r="2" fill="white" />
    <circle cx="448" cy="192" r="2" fill="white" />
    
    <circle cx="64" cy="256" r="2" fill="white" />
    <circle cx="128" cy="256" r="2" fill="white" />
    <circle cx="192" cy="256" r="2" fill="white" />
    <circle cx="256" cy="256" r="2" fill="white" />
    <circle cx="320" cy="256" r="2" fill="white" />
    <circle cx="384" cy="256" r="2" fill="white" />
    <circle cx="448" cy="256" r="2" fill="white" />
    
    <circle cx="64" cy="320" r="2" fill="white" />
    <circle cx="128" cy="320" r="2" fill="white" />
    <circle cx="192" cy="320" r="2" fill="white" />
    <circle cx="256" cy="320" r="2" fill="white" />
    <circle cx="320" cy="320" r="2" fill="white" />
    <circle cx="384" cy="320" r="2" fill="white" />
    <circle cx="448" cy="320" r="2" fill="white" />
    
    <circle cx="64" cy="384" r="2" fill="white" />
    <circle cx="128" cy="384" r="2" fill="white" />
    <circle cx="192" cy="384" r="2" fill="white" />
    <circle cx="256" cy="384" r="2" fill="white" />
    <circle cx="320" cy="384" r="2" fill="white" />
    <circle cx="384" cy="384" r="2" fill="white" />
    <circle cx="448" cy="384" r="2" fill="white" />
    
    <circle cx="64" cy="448" r="2" fill="white" />
    <circle cx="128" cy="448" r="2" fill="white" />
    <circle cx="192" cy="448" r="2" fill="white" />
    <circle cx="256" cy="448" r="2" fill="white" />
    <circle cx="320" cy="448" r="2" fill="white" />
    <circle cx="384" cy="448" r="2" fill="white" />
    <circle cx="448" cy="448" r="2" fill="white" />
  </g>
  
  <!-- Main icon elements -->
  <g filter="url(#glow)">
    <!-- Central tag icon -->
    <g>
      <!-- Rounded rectangle/tag shape -->
      <rect x="128" y="156" width="256" height="148" rx="24" fill="url(#primaryGradient)" />
      
      <!-- Tag hole -->
      <circle cx="168" cy="192" r="16" fill="#0f172a" stroke="rgba(255, 255, 255, 0.5)" stroke-width="2" />
      
      <!-- Tag lines -->
      <rect x="208" y="172" width="144" height="12" rx="6" fill="white" opacity="0.9" />
      <rect x="208" y="204" width="116" height="12" rx="6" fill="white" opacity="0.7" />
      <rect x="208" y="236" width="128" height="12" rx="6" fill="white" opacity="0.8" />
    </g>
    
    <!-- SEO text -->
    <g transform="translate(156, 328)">
      <!-- S -->
      <path d="M12,0 C30,0 40,10 40,24 C40,38 30,48 12,48 C6,48 0,46 0,40 L16,40 C16,42 18,42 20,42 C25,42 26,38 26,36 C26,33 25,28 20,28 L4,28 L4,0 L40,0 L40,6 L12,6 L12,22 C14,22 20,22 20,22 C34,22 46,28 46,36 C46,44 33,48 20,48 C10,48 0,46 0,36 L0,28 L4,28 L4,30" 
            stroke="url(#accentGradient)" stroke-width="8" stroke-linejoin="round" stroke-linecap="round" fill="none" />
      
      <!-- E -->
      <path d="M60,0 L100,0 L100,8 L68,8 L68,20 L90,20 L90,28 L68,28 L68,40 L100,40 L100,48 L60,48 Z" 
            fill="url(#accentGradient)" />
      
      <!-- O -->
      <path d="M140,24 C140,37.2 129.2,48 116,48 C102.8,48 92,37.2 92,24 C92,10.8 102.8,0 116,0 C129.2,0 140,10.8 140,24 Z M116,40 C124.8,40 132,32.8 132,24 C132,15.2 124.8,8 116,8 C107.2,8 100,15.2 100,24 C100,32.8 107.2,40 116,40 Z" 
            fill="url(#accentGradient)" />
    </g>
  </g>
  
  <!-- Decorative elements -->
  <g filter="url(#glow)" opacity="0.6">
    <circle cx="96" cy="96" r="6" fill="#6366f1" />
    <circle cx="416" cy="96" r="6" fill="#8b5cf6" />
    <circle cx="96" cy="416" r="6" fill="#d946ef" />
    <circle cx="416" cy="416" r="6" fill="#ec4899" />
  </g>
</svg>