<?xml version="1.0" encoding="UTF-8" standalone="no"?>
<svg width="512" height="512" viewBox="0 0 512 512" fill="none" xmlns="http://www.w3.org/2000/svg">
  <!-- Definitions -->
  <defs>
    <!-- Background gradients -->
    <linearGradient id="bgGradient" x1="0%" y1="0%" x2="100%" y2="100%">
      <stop offset="0%" stop-color="#0f172a" />
      <stop offset="50%" stop-color="#1e293b" />
      <stop offset="100%" stop-color="#0f172a" />
    </linearGradient>
    
    <linearGradient id="glassGradient" x1="0%" y1="0%" x2="100%" y2="100%">
      <stop offset="0%" stop-color="rgba(255, 255, 255, 0.05)" />
      <stop offset="100%" stop-color="rgba(255, 255, 255, 0.15)" />
    </linearGradient>
    
    <!-- Text highlighting gradient -->
    <linearGradient id="textGradient" x1="0%" y1="0%" x2="100%" y2="100%">
      <stop offset="0%" stop-color="#6366f1" />
      <stop offset="50%" stop-color="#8b5cf6" />
      <stop offset="100%" stop-color="#ec4899" />
    </linearGradient>
    
    <!-- Glow effects -->
    <filter id="glow" x="-20%" y="-20%" width="140%" height="140%">
      <feGaussianBlur stdDeviation="8" result="blur" />
      <feComposite in="SourceGraphic" in2="blur" operator="over" />
    </filter>
    
    <filter id="softShadow" x="-10%" y="-10%" width="120%" height="120%">
      <feDropShadow dx="0" dy="4" stdDeviation="6" flood-color="#000" flood-opacity="0.2"/>
    </filter>
  </defs>
  
  <!-- Background -->
  <rect width="512" height="512" rx="100" fill="url(#bgGradient)" />
  
  <!-- Background hexagon pattern -->
  <g opacity="0.07">
    <!-- Hexagon grid pattern -->
    <path d="M64,96 L128,64 L192,96 L192,160 L128,192 L64,160 Z" stroke="#6366f1" fill="none" />
    <path d="M192,96 L256,64 L320,96 L320,160 L256,192 L192,160 Z" stroke="#6366f1" fill="none" />
    <path d="M320,96 L384,64 L448,96 L448,160 L384,192 L320,160 Z" stroke="#6366f1" fill="none" />
    
    <path d="M64,224 L128,192 L192,224 L192,288 L128,320 L64,288 Z" stroke="#6366f1" fill="none" />
    <path d="M192,224 L256,192 L320,224 L320,288 L256,320 L192,288 Z" stroke="#6366f1" fill="none" />
    <path d="M320,224 L384,192 L448,224 L448,288 L384,320 L320,288 Z" stroke="#6366f1" fill="none" />
    
    <path d="M64,352 L128,320 L192,352 L192,416 L128,448 L64,416 Z" stroke="#6366f1" fill="none" />
    <path d="M192,352 L256,320 L320,352 L320,416 L256,448 L192,416 Z" stroke="#6366f1" fill="none" />
    <path d="M320,352 L384,320 L448,352 L448,416 L384,448 L320,416 Z" stroke="#6366f1" fill="none" />
  </g>
  
  <!-- Main glass card -->
  <g filter="url(#softShadow)">
    <rect x="96" y="96" width="320" height="320" rx="24" fill="url(#glassGradient)" stroke="rgba(255, 255, 255, 0.1)" stroke-width="2" />
    
    <!-- Glass reflections -->
    <path d="M96,120 L416,120" stroke="rgba(255, 255, 255, 0.1)" stroke-width="1" />
    <path d="M96,160 L416,160" stroke="rgba(255, 255, 255, 0.07)" stroke-width="1" />
  </g>
  
  <!-- Main content -->
  <g filter="url(#glow)">
    <!-- Tag icon in the center -->
    <g transform="translate(126, 186)">
      <!-- Tag shape -->
      <path d="M130,20 L240,20 C250,20 260,30 260,40 L260,120 C260,130 250,140 240,140 L20,140 C10,140 0,130 0,120 L0,40 C0,30 10,20 20,20 Z" fill="url(#textGradient)" />
      
      <!-- Tag hole -->
      <circle cx="40" cy="40" r="15" fill="#0f172a" stroke="rgba(255, 255, 255, 0.3)" stroke-width="2" />
      
      <!-- Tag text lines -->
      <rect x="80" y="50" width="140" height="10" rx="5" fill="white" opacity="0.9" />
      <rect x="80" y="80" width="100" height="10" rx="5" fill="white" opacity="0.7" />
      <rect x="80" y="110" width="120" height="10" rx="5" fill="white" opacity="0.8" />
    </g>
    
    <!-- SEO letters with gradient -->
    <g transform="translate(156, 320)">
      <!-- S -->
      <path d="M10,0 C30,0 40,10 40,20 C40,30 30,35 20,35 C10,35 0,30 0,20 L15,20 C15,22 17,25 20,25 C23,25 25,23 25,20 C25,17 23,15 20,15 L10,15 L10,0 Z" fill="url(#textGradient)" />
      
      <!-- E -->
      <path d="M60,0 L100,0 L100,15 L75,15 L75,20 L95,20 L95,35 L75,35 L75,40 L100,40 L100,55 L60,55 Z" fill="url(#textGradient)" />
      
      <!-- O -->
      <path d="M140,27.5 C140,42.7 127.7,55 112.5,55 C97.3,55 85,42.7 85,27.5 C85,12.3 97.3,0 112.5,0 C127.7,0 140,12.3 140,27.5 Z M112.5,40 C119.4,40 125,34.4 125,27.5 C125,20.6 119.4,15 112.5,15 C105.6,15 100,20.6 100,27.5 C100,34.4 105.6,40 112.5,40 Z" fill="url(#textGradient)" />
      
      <!-- # -->
      <g transform="translate(155, 0)">
        <path d="M15,0 L20,0 L22,15 L35,15 L33,0 L38,0 L40,15 L50,15 L50,20 L41,20 L43,35 L55,35 L55,40 L44,40 L46,55 L41,55 L39,40 L26,40 L28,55 L23,55 L21,40 L10,40 L10,35 L20,35 L18,20 L5,20 L5,15 L17,15 L15,0 Z M26,20 L24,35 L37,35 L39,20 L26,20 Z" fill="url(#textGradient)" />
      </g>
    </g>
  </g>
  
  <!-- Decorative elements -->
  <g opacity="0.8">
    <circle cx="96" cy="96" r="8" fill="#6366f1" />
    <circle cx="416" cy="96" r="8" fill="#8b5cf6" />
    <circle cx="96" cy="416" r="8" fill="#d946ef" />
    <circle cx="416" cy="416" r="8" fill="#ec4899" />
  </g>
  
  <!-- Glowing particles -->
  <g filter="url(#glow)">
    <circle cx="150" cy="80" r="3" fill="#6366f1" />
    <circle cx="380" cy="120" r="2" fill="#8b5cf6" />
    <circle cx="420" cy="250" r="4" fill="#d946ef" />
    <circle cx="80" cy="300" r="3" fill="#ec4899" />
    <circle cx="250" cy="450" r="3" fill="#6366f1" />
    <circle cx="350" cy="400" r="2" fill="#8b5cf6" />
  </g>
</svg>