<?xml version="1.0" encoding="UTF-8" standalone="no"?>
<svg width="512" height="512" viewBox="0 0 512 512" fill="none" xmlns="http://www.w3.org/2000/svg">
  <!-- Background gradient -->
  <defs>
    <linearGradient id="bgGradient" x1="0%" y1="0%" x2="100%" y2="100%">
      <stop offset="0%" stop-color="#0f172a" />
      <stop offset="50%" stop-color="#1e293b" />
      <stop offset="100%" stop-color="#0f172a" />
    </linearGradient>
    
    <linearGradient id="tagGradient1" x1="0%" y1="0%" x2="100%" y2="100%">
      <stop offset="0%" stop-color="#6366f1" />
      <stop offset="50%" stop-color="#8b5cf6" />
      <stop offset="100%" stop-color="#d946ef" />
    </linearGradient>
    
    <linearGradient id="tagGradient2" x1="0%" y1="0%" x2="100%" y2="100%">
      <stop offset="0%" stop-color="#8b5cf6" />
      <stop offset="50%" stop-color="#d946ef" />
      <stop offset="100%" stop-color="#ec4899" />
    </linearGradient>
    
    <linearGradient id="glowGradient" x1="0%" y1="0%" x2="100%" y2="100%">
      <stop offset="0%" stop-color="rgba(99, 102, 241, 0.8)" />
      <stop offset="100%" stop-color="rgba(236, 72, 153, 0.8)" />
    </linearGradient>
    
    <filter id="glow" x="-50%" y="-50%" width="200%" height="200%">
      <feGaussianBlur stdDeviation="10" result="blur" />
      <feComposite in="SourceGraphic" in2="blur" operator="over" />
    </filter>
  </defs>
  
  <!-- Background with gradient -->
  <rect width="512" height="512" rx="80" fill="url(#bgGradient)" />
  
  <!-- Grid pattern -->
  <g opacity="0.15">
    <path d="M32 32H480M32 96H480M32 160H480M32 224H480M32 288H480M32 352H480M32 416H480M32 480H480" stroke="#6366f1" stroke-width="1" />
    <path d="M32 32V480M96 32V480M160 32V480M224 32V480M288 32V480M352 32V480M416 32V480M480 32V480" stroke="#6366f1" stroke-width="1" />
  </g>
  
  <!-- Glow effect behind the main elements -->
  <circle cx="256" cy="256" r="120" fill="url(#glowGradient)" opacity="0.3" filter="url(#glow)" />
  
  <!-- Main tag elements -->
  <g filter="url(#glow)">
    <!-- First tag -->
    <g transform="translate(156, 186) rotate(-15)">
      <rect x="0" y="0" width="200" height="100" rx="20" fill="url(#tagGradient1)" />
      <circle cx="35" cy="30" r="15" fill="white" opacity="0.9" />
      <rect x="70" y="25" width="100" height="10" rx="5" fill="white" opacity="0.8" />
      <rect x="70" y="45" width="80" height="10" rx="5" fill="white" opacity="0.8" />
      <rect x="70" y="65" width="60" height="10" rx="5" fill="white" opacity="0.8" />
    </g>
    
    <!-- Second tag -->
    <g transform="translate(186, 216) rotate(15)">
      <rect x="0" y="0" width="200" height="100" rx="20" fill="url(#tagGradient2)" />
      <circle cx="35" cy="30" r="15" fill="white" opacity="0.9" />
      <rect x="70" y="25" width="100" height="10" rx="5" fill="white" opacity="0.8" />
      <rect x="70" y="45" width="80" height="10" rx="5" fill="white" opacity="0.8" />
      <rect x="70" y="65" width="60" height="10" rx="5" fill="white" opacity="0.8" />
    </g>
  </g>
  
  <!-- Small decorative elements -->
  <g opacity="0.8">
    <circle cx="80" cy="80" r="8" fill="#6366f1" />
    <circle cx="432" cy="80" r="8" fill="#8b5cf6" />
    <circle cx="80" cy="432" r="8" fill="#d946ef" />
    <circle cx="432" cy="432" r="8" fill="#ec4899" />
  </g>
  
  <!-- Random small stars/particles -->
  <g>
    <circle cx="150" cy="100" r="2" fill="white" opacity="0.8" />
    <circle cx="350" cy="120" r="2" fill="white" opacity="0.8" />
    <circle cx="400" cy="200" r="2" fill="white" opacity="0.8" />
    <circle cx="100" cy="350" r="2" fill="white" opacity="0.8" />
    <circle cx="300" cy="420" r="2" fill="white" opacity="0.8" />
    <circle cx="220" cy="450" r="2" fill="white" opacity="0.8" />
    <circle cx="420" cy="380" r="2" fill="white" opacity="0.8" />
    <circle cx="180" cy="50" r="2" fill="white" opacity="0.8" />
    <circle cx="420" cy="300" r="2" fill="white" opacity="0.8" />
    <circle cx="120" cy="280" r="2" fill="white" opacity="0.8" />
    <circle cx="380" cy="80" r="2" fill="white" opacity="0.8" />
    <circle cx="250" cy="100" r="2" fill="white" opacity="0.8" />
  </g>
</svg>